<?xml version="1.0" encoding="UTF-8"?>
<svg version="1.1" viewBox="0 0 1024 1024" width="1024" height="1024" xmlns="http://www.w3.org/2000/svg">
<path transform="translate(656,296)" d="m0 0h74v290l-3 21-5 18-8 18-8 14-8 11-12 14-13 12-18 13-15 8-7 1-162-162v-99l7 6 105 105 2 1v2l4 2 12 12v2l4 2 40 40 7 8 3 3z" fill="#171718"/>
<path transform="translate(459,296)" d="m0 0h94v155l-3-1v-2l-4-2-75-75h-18l-15 3-15 6-15 10-10 9-13 17-8 16-6 18-3 17-1 11-1 246h-72v-260l3-25 5-20 7-19 11-21 12-17 12-13 9-9 17-13 13-8 16-8 18-7 25-6z" fill="#171718"/>
</svg>
